<?xml version="1.0" standalone="no"?>
<!DOCTYPE svg PUBLIC "-//W3C//DTD SVG 20010904//EN"
 "http://www.w3.org/TR/2001/REC-SVG-20010904/DTD/svg10.dtd">
<svg version="1.0" xmlns="http://www.w3.org/2000/svg"
 width="283.000000pt" height="283.000000pt" viewBox="0 0 283.000000 283.000000"
 preserveAspectRatio="xMidYMid meet">
<metadata>
Created by potrace 1.11, written by Peter Selinger 2001-2013
</metadata>
<g transform="translate(0.000000,283.000000) scale(0.100000,-0.100000)"
fill="#000000" stroke="none">
<path d="M1057 2546 c-75 -28 -137 -90 -179 -182 -19 -41 -23 -66 -23 -159 0
-103 2 -114 32 -177 72 -154 233 -310 432 -420 l30 -16 -2 -589 -2 -588 -635
-2 c-349 -1 -650 -2 -668 -2 l-33 -1 2 -70 2 -70 1399 0 1398 0 0 70 c0 66 -1
70 -22 71 -13 0 -308 1 -655 1 l-633 1 0 592 0 592 27 12 c25 12 133 80 143
91 3 3 23 18 45 35 108 80 222 227 260 335 46 132 9 312 -83 405 -64 64 -105
80 -207 80 -105 0 -156 -20 -223 -86 l-41 -41 -31 36 c-51 57 -133 93 -221 94
-41 1 -91 -4 -112 -12z m158 -140 c46 -20 83 -60 111 -122 21 -49 23 -63 23
-288 0 -183 -2 -235 -12 -229 -123 75 -252 204 -297 295 -66 136 -37 292 62
341 41 21 69 21 113 3z m512 3 c67 -25 113 -105 114 -200 3 -125 -83 -254
-258 -388 l-78 -61 -3 240 c-2 227 -1 243 19 291 41 95 130 147 206 118z"/>
<path d="M274 1539 c-124 -39 -213 -125 -253 -243 -16 -49 -19 -81 -17 -161 2
-91 6 -107 36 -168 70 -142 200 -216 389 -221 111 -3 206 19 296 70 l40 22 3
176 2 176 -177 0 -178 0 0 -67 0 -68 75 -1 c41 -1 84 -2 96 -3 18 -1 20 -7 19
-56 -1 -31 -6 -60 -11 -65 -19 -19 -128 -40 -185 -35 -72 5 -126 32 -172 85
-99 116 -70 321 55 393 92 54 210 50 306 -10 l50 -31 61 46 61 47 -23 21
c-113 104 -314 144 -473 93z"/>
<path d="M2204 1551 c-2 -2 -4 -184 -4 -403 l0 -399 213 1 c241 2 292 12 354
71 46 45 60 82 58 154 -3 92 -41 150 -119 184 l-39 17 29 19 c54 35 80 77 87
141 12 110 -60 190 -190 210 -51 7 -382 12 -389 5z m351 -155 c56 -24 72 -81
35 -128 -24 -31 -73 -44 -160 -43 l-65 0 -1 85 c0 47 1 88 3 93 7 13 152 8
188 -7z m25 -313 c88 -35 94 -130 11 -169 -45 -22 -220 -31 -222 -11 -4 33 -5
183 -1 189 6 13 175 6 212 -9z"/>
</g>
</svg>
