<svg xmlns="http://www.w3.org/2000/svg" xmlns:xlink="http://www.w3.org/1999/xlink" width="14.36" height="33.06" viewBox="0 0 14.36 33.06">
  <defs>
    <style>
      .a {
        fill: none;
      }

      .b {
        clip-path: url(#a);
      }

      .c {
        fill: #fcf0e9;
      }
    </style>
    <clipPath id="a">
      <rect class="a" width="14.36" height="33.06"/>
    </clipPath>
  </defs>
  <title>icon__classes</title>
  <g class="b">
    <path class="c" d="M3.69,12.82C2.89,10,4.94,6.29,6.5,4V15.74a4.63,4.63,0,0,1-2.81-2.92m7.48-.28a5,5,0,0,1-2.89,3.15V3.92c1.56,2.18,3.62,5.76,2.89,8.62M8.28,31.27V17.64c2.52-1,4.08-2.57,4.62-4.66C14.26,7.66,8.31,1,8.05.74L7.38,0,6.72.76C6.46,1.05.47,8,2,13.31c.57,2,2.1,3.45,4.53,4.35V31.27H0v1.78H14.36V31.27Z"/>
  </g>
</svg>
