<svg data-name="Warstwa 1" xmlns="http://www.w3.org/2000/svg" xmlns:xlink="http://www.w3.org/1999/xlink" viewBox="0 0 84.33 84.33">
	<defs>
		<style>.cls-1,.cls-2,.cls-5,.cls-6{fill:none;}.cls-2,.cls-5,.cls-6{stroke:#64aaa7;}.cls-2{stroke-miterlimit:10;}.cls-3{clip-path:url(#clip-path);}.cls-4{fill:#fff;}.cls-5,.cls-6{stroke-linecap:round;stroke-linejoin:round;}.cls-6{stroke-width:2px;}</style>
		<clipPath>
			<rect class="cls-1" width="84.33" height="84.33"/>
		</clipPath>
	</defs>
	<line class="cls-2" x1="68.28" y1="16.05" x2="16.05" y2="68.28"/>
	<path class="cls-4" d="M66.54,14.31S22.66,26.05,14.31,66.54"/>
	<path class="cls-2" d="M66.54,14.31S22.66,26.05,14.31,66.54"/>
	<path class="cls-4" d="M70,17.78S58.27,61.67,17.78,70"/>
	<path class="cls-2" d="M70,17.78S58.27,61.67,17.78,70"/>
	<path class="cls-5" d="M63,10.74S19.58,19.58,10.74,63C10.74,63,6,6,63,10.74ZM73.59,21.35s-8.84,43.4-52.24,52.24C21.35,73.59,78.37,78.37,73.59,21.35Z"/>
	<path class="cls-6" d="M6.59,67.11s.53,10.47,10.62,10.62M67.14,6.57S77.6,7.1,77.75,17.19M1,83.33s6.45-6.46,21.76-5.58c12.85.74,29.62-.75,41.78-13.21M83.33,1s-6.46,6.45-5.58,21.76c.74,12.85-.75,29.62-13.21,41.78M1,83.33s6.46-6.45,5.58-21.76C5.84,48.72,7.33,32,19.79,19.79M83.33,1S76.88,7.46,61.57,6.58C48.72,5.84,32,7.33,19.79,19.79"/>
</svg>