<?xml version="1.0" encoding="utf-8"?>
<!-- Generator: Adobe Illustrator 21.0.0, SVG Export Plug-In . SVG Version: 6.00 Build 0)  -->
<svg version="1.1" id="Layer_1" xmlns="http://www.w3.org/2000/svg" xmlns:xlink="http://www.w3.org/1999/xlink" x="0px" y="0px"
	 viewBox="0 0 225.4 199.9" style="enable-background:new 0 0 225.4 199.9;" xml:space="preserve">
<style type="text/css">
	.st0{fill:none;stroke:#64AAA7;stroke-width:9.0702;stroke-miterlimit:10;}
	.st1{fill:#64AAA7;}
	.st2{fill:none;stroke:#64AAA7;stroke-width:6.2257;stroke-miterlimit:10;}
	.st3{fill:none;stroke:#64AAA7;stroke-width:4.1505;stroke-dasharray:16.0291,16.0291;}
	.st4{fill:none;stroke:#64AAA7;stroke-width:4.1505;}
</style>
<g>
	<path class="st2" d="M127.8,199.9V179c0-6.3,1.8-12.4,5.3-17.6c0-0.1,0.1-0.1,0.2-0.2c2.1-3.1,4.9-5.6,7.9-7.9
		c4.6-3.6,7.5-9.4,6.8-15.9c-0.8-7.7-6.7-14.1-14.4-15.5c-4-0.7-7.7-0.1-10.9,1.5c0,0-1.9,1-2.7,1.6c-3,1.5-5.7,2-8,1.9
		c-2.7-0.1-5.2-1.1-7.5-2.5c-0.6-0.4-1.8-1-1.8-1c-3.2-1.5-6.9-2.2-10.9-1.5c-7.6,1.4-13.5,7.8-14.4,15.5
		c-0.6,5.8,1.6,11.1,5.4,14.8v0c0,0,0.1,0,0.1,0.1c0.9,0.9,1.9,1.6,3,2.3c0.8,0.7,1.5,1.3,2.2,2c6.2,6.3,9.4,14.9,9.4,23.7v19.8
		 M97.4,0v20.9c0,6.3-1.8,12.4-5.3,17.6c-0.1,0.1-0.1,0.1-0.2,0.2c-2.1,3.1-4.9,5.6-7.9,7.9c-4.6,3.6-7.5,9.4-6.8,15.9
		c0.8,7.7,6.7,14.1,14.4,15.5c4,0.7,7.7,0.1,10.9-1.5c0,0,1.9-1,2.7-1.6c3-1.5,5.7-2,8-1.9c2.7,0.1,5.2,1.1,7.5,2.5
		c0.6,0.4,1.8,1,1.8,1c3.2,1.5,6.9,2.2,10.9,1.5c7.6-1.4,13.5-7.8,14.4-15.5c0.6-5.8-1.6-11.1-5.4-14.8l0,0c0,0-0.1,0-0.1-0.1
		c-0.9-0.9-1.9-1.6-3-2.3c-0.8-0.7-1.5-1.3-2.2-2c-6.2-6.3-9.4-14.9-9.4-23.7V0 M126.9,99.9c0,7.9-6.4,14.3-14.3,14.3
		c-7.9,0-14.3-6.4-14.3-14.3s6.4-14.3,14.3-14.3C120.5,85.6,126.9,92,126.9,99.9z"/>
	<path class="st3" d="M40.4,43.4C23,50.6,9.6,65.6,4.7,84.1"/>
	<path class="st3" d="M7.3,123.4c7.2,17.4,22.3,30.8,40.7,35.7"/>
	<path class="st4" d="M55.9,160.6c2.6,0.3,5.3,0.5,8,0.5 M3.1,91.9c-0.3,2.6-0.5,5.3-0.5,8s0.2,5.4,0.5,8 M63.8,38.7
		c-2.7,0-5.4,0.2-8,0.5"/>
	<path class="st3" d="M184.8,156.5c17.4-7.2,30.8-22.3,35.7-40.7"/>
	<path class="st3" d="M218,76.5c-7.2-17.4-22.3-30.8-40.7-35.7"/>
	<path class="st4" d="M169.4,39.2c-2.6-0.3-5.3-0.5-8-0.5 M222.1,107.9c0.3-2.6,0.5-5.3,0.5-8s-0.2-5.4-0.5-8 M161.4,161.2
		c2.7,0,5.4-0.2,8-0.5"/>
</g>
</svg>
