<svg xmlns="http://www.w3.org/2000/svg" xmlns:xlink="http://www.w3.org/1999/xlink" width="25" height="37.96" viewBox="0 0 25 37.96">
  <defs>
    <style>
      .a {
        fill: none;
      }

      .b {
        clip-path: url(#a);
      }

      .c {
        fill: #fcf0e9;
      }
    </style>
    <clipPath id="a">
      <rect class="a" width="25" height="37.96"/>
    </clipPath>
  </defs>
  <title>icon__retreats</title>
  <g class="b">
    <path class="c" d="M1.93,8c9.09-.19,9.63,4.72,9.65,5v4C3.94,14.62,2.29,9.93,1.93,8m9.65-5.83v7c-.13-.13-.24-.27-.38-.39A10.46,10.46,0,0,0,6,6.46c.56-1.16,2-3.14,5.58-4.31m7.48,4.3A10.51,10.51,0,0,0,13.8,8.78c-.14.13-.26.26-.38.39v-7c3.75,1.15,5.14,3.17,5.64,4.32m4,1.53c-.36,1.95-2,6.64-9.65,9V13c0-.29.52-5.2,9.65-5M25,7.1V6.25l-.87,0a24.23,24.23,0,0,0-3.2,0C20.39,4.65,18.58,1.39,12.7.05l-.21,0-.21.05C6.6,1.44,4.7,4.69,4.1,6.21a24.76,24.76,0,0,0-3.23,0L0,6.25V7.1c0,.36.12,8.5,11.58,11.79V36.14H5.11V38H19.89V36.14H13.42V18.89C24.88,15.6,25,7.46,25,7.1"/>
  </g>
</svg>
