<svg xmlns="http://www.w3.org/2000/svg" xmlns:xlink="http://www.w3.org/1999/xlink" width="32.71" height="32.71" viewBox="0 0 32.71 32.71">
  <defs>
    <style>
      .a {
        fill: none;
      }

      .b {
        fill: #64aaa7;
      }

      .c {
        clip-path: url(#a);
      }
    </style>
    <clipPath id="a">
      <rect class="a" width="32.71" height="32.71"/>
    </clipPath>
  </defs>
  <title>icon__instagram</title>
  <path class="b" d="M3.18,3.18H29.53V29.53H3.18ZM0,32.71H32.71V0H0Z"/>
  <g class="c">
    <path class="b" d="M16.35,12.88a4.32,4.32,0,1,0,4.32,4.32,4.32,4.32,0,0,0-4.32-4.32m0,11.81a7.5,7.5,0,1,1,7.5-7.49,7.5,7.5,0,0,1-7.5,7.49"/>
    <path class="b" d="M27.32,8.08a2.53,2.53,0,1,1-2.53-2.53,2.53,2.53,0,0,1,2.53,2.53"/>
  </g>
</svg>
