<svg xmlns="http://www.w3.org/2000/svg" xmlns:xlink="http://www.w3.org/1999/xlink" width="15.13" height="38.07" viewBox="0 0 15.13 38.07">
  <defs>
    <style>
      .a {
        fill: none;
      }

      .b {
        clip-path: url(#a);
      }

      .c {
        fill: #fcf0e9;
      }
    </style>
    <clipPath id="a">
      <rect class="a" x="0.13" y="0.01" width="15" height="37.96"/>
    </clipPath>
  </defs>
  <title>icon__chiro</title>
  <g class="b">
    <path class="c" d="M5.41,3.87a1,1,0,1,1,1-1,1,1,0,0,1-1,1m4.43-2a1,1,0,1,1-1,1,1,1,0,0,1,1-1M5.41,27.08a1,1,0,0,1,0-2,1,1,0,1,1,0,2m0-7.73a1,1,0,1,1,1-1,1,1,0,0,1-1,1m0-7.74a1,1,0,1,1,1-1,1,1,0,0,1-1,1m4.43-2a1,1,0,1,1-1,1,1,1,0,0,1,1-1m0,7.74a1,1,0,1,1-1,1,1,1,0,0,1,1-1m0,7.74a1,1,0,1,1-1,1,1,1,0,0,1,1-1m-1.23,11V28.66a2.87,2.87,0,1,0,0-5.15V20.92a2.87,2.87,0,1,0,0-5.15V13.19a3,3,0,0,0,1.23.28A2.86,2.86,0,1,0,8.61,8V5.45a3,3,0,0,0,1.23.28A2.86,2.86,0,0,0,9.84,0a2.82,2.82,0,0,0-2.1.93H7.51A2.82,2.82,0,0,0,5.41,0,2.86,2.86,0,1,0,6.75,5.39v2.7a2.86,2.86,0,1,0,0,5v2.7a2.86,2.86,0,1,0-1.34,5.38,2.76,2.76,0,0,0,1.34-.35v2.71a2.76,2.76,0,0,0-1.34-.35,2.87,2.87,0,0,0,0,5.73,2.76,2.76,0,0,0,1.34-.35v7.5H.13V38h15V36.1Z"/>
  </g>
</svg>
