<svg xmlns="http://www.w3.org/2000/svg" xmlns:xlink="http://www.w3.org/1999/xlink" width="201.74" height="32.71" viewBox="0 0 201.74 32.71">
  <defs>
    <style>
      .a {
        fill: none;
      }

      .b {
        clip-path: url(#a);
      }

      .c {
        fill: #fcf0e9;
      }
    </style>
    <clipPath id="a">
      <rect class="a" width="201.74" height="32.71"/>
    </clipPath>
  </defs>
  <title>logo__genieve-burley</title>
  <g class="b">
    <path class="c" d="M6.32,25.63a8.25,8.25,0,0,0,4.88-1.48V19H6.05v2H8.84v1.75a4.73,4.73,0,0,1-2.52.68,3.66,3.66,0,0,1-3.76-3.9,3.6,3.6,0,0,1,3.66-3.89,4.6,4.6,0,0,1,3.19,1.23l1.74-1.41a6.74,6.74,0,0,0-4.93-2A5.85,5.85,0,0,0,0,19.57c0,3.82,2.75,6.06,6.32,6.06"/>
  </g>
  <polygon class="c" points="25.07 23.41 19.2 23.41 19.2 20.65 23.61 20.65 23.61 18.57 19.2 18.57 19.2 15.71 24.7 15.71 24.7 13.6 16.77 13.6 16.77 25.51 25.07 25.51 25.07 23.41"/>
  <polygon class="c" points="32.83 17.62 32.87 17.62 38.32 25.51 40.83 25.51 40.83 13.59 38.38 13.59 38.38 21.65 38.34 21.65 32.83 13.59 30.39 13.59 30.39 25.51 32.83 25.51 32.83 17.62"/>
  <rect class="c" x="46.78" y="13.6" width="2.47" height="11.92"/>
  <polygon class="c" points="63.48 23.41 57.6 23.41 57.6 20.65 62.02 20.65 62.02 18.57 57.6 18.57 57.6 15.71 63.11 15.71 63.11 13.6 55.19 13.6 55.19 25.51 63.48 25.51 63.48 23.41"/>
  <polygon class="c" points="74.59 25.51 79.18 13.6 76.54 13.6 73.51 22.16 73.48 22.16 70.49 13.6 67.83 13.6 72.43 25.51 74.59 25.51"/>
  <polygon class="c" points="92.31 23.41 86.43 23.41 86.43 20.65 90.85 20.65 90.85 18.57 86.43 18.57 86.43 15.71 91.94 15.71 91.94 13.6 84.01 13.6 84.01 25.51 92.31 25.51 92.31 23.41"/>
  <g class="b">
    <path class="c" d="M123.48,23.44V20.38h2c1.46,0,2.18.61,2.18,1.54s-.89,1.51-2.2,1.52Zm0-7.76h1.59c1.43,0,2,.56,2,1.39s-.89,1.41-1.87,1.41h-1.75Zm6.74,6.54a3,3,0,0,0-2.49-3v0a2.71,2.71,0,0,0,1.86-2.66c0-1.89-1.42-2.91-4-2.91h-4.47V25.51h5.13c2.71,0,4-1.38,4-3.29"/>
    <path class="c" d="M140.29,25.65c3.19,0,5-2,5-5.07v-7h-2.45v6.84c0,1.9-1.08,3-2.58,3s-2.54-1.3-2.54-3V13.59h-2.46v7c0,3.25,2,5.07,5,5.07"/>
    <path class="c" d="M153.46,15.69h1.82c1.43,0,2.23.72,2.23,1.83s-.81,1.83-2.33,1.83h-1.72Zm0,5.74h1.42l2.78,4.08h2.9l-3.05-4.32v0a3.48,3.48,0,0,0,2.54-3.59c0-2.29-1.33-4-4.32-4H151V25.51h2.42Z"/>
  </g>
  <polygon class="c" points="173.55 23.41 168.03 23.41 168.03 13.6 165.58 13.6 165.58 25.51 173.55 25.51 173.55 23.41"/>
  <polygon class="c" points="186.88 23.41 181.01 23.41 181.01 20.65 185.42 20.65 185.42 18.57 181.01 18.57 181.01 15.71 186.51 15.71 186.51 13.6 178.59 13.6 178.59 25.51 186.88 25.51 186.88 23.41"/>
  <polygon class="c" points="198.87 13.59 196.37 17.94 196.34 17.94 193.81 13.59 191 13.59 195.1 20.28 195.1 25.51 197.58 25.51 197.58 20.28 201.7 13.59 198.87 13.59"/>
  <g class="b">
    <path class="c" d="M99.87,5.46c0-2.15,1.07-3.23,2.14-3.35S104.44,2.84,105,5h0v7c-3.1-2-5.09-4.46-5.09-6.53M110,2.11c1.06.12,2.13,1.2,2.13,3.35s-2,4.53-5,6.49V4.81c.55-2,1.84-2.81,2.89-2.7m-2.89,28.5V14.4c4.45-2.46,7.21-5.84,7.21-8.94,0-3.45-2-5.21-4.08-5.43A4.59,4.59,0,0,0,106,2.12,4.58,4.58,0,0,0,101.76,0c-2,.22-4.08,2-4.08,5.43,0,3.12,2.79,6.51,7.28,9V30.61H.59v2.1H201.74v-2.1Z"/>
  </g>
</svg>
