<svg xmlns="http://www.w3.org/2000/svg" xmlns:xlink="http://www.w3.org/1999/xlink" width="70.67" height="57.29" viewBox="0 0 70.67 57.29">
  <defs>
    <style>
      .a {
        fill: none;
      }

      .b {
        clip-path: url(#a);
      }

      .c {
        fill: #64aaa7;
      }
    </style>
    <clipPath id="a">
      <rect class="a" width="70.67" height="57.29"/>
    </clipPath>
  </defs>
  <title>logo__genieve-burley--short--primary-color</title>
  <g class="b">
    <path class="c" d="M10.86,45.41a14.52,14.52,0,0,0,8.39-2.48V34.3H10.39v3.4h4.79v2.94a8.28,8.28,0,0,1-4.32,1.15,6.22,6.22,0,0,1-6.47-6.55c0-4.09,2.8-6.55,6.29-6.55a8,8,0,0,1,5.48,2.07l3-2.38A11.73,11.73,0,0,0,10.68,25C4,25,0,29.39,0,35.24c0,6.41,4.73,10.17,10.86,10.17"/>
    <path class="c" d="M59.09,41.73V36.58h3.44c2.5,0,3.75,1,3.75,2.61s-1.54,2.53-3.8,2.54Zm0-13h2.74c2.46,0,3.48.93,3.48,2.32,0,1.66-1.52,2.37-3.21,2.37h-3Zm11.58,11c0-2.64-1.55-4.43-4.28-5.08v-.05a4.56,4.56,0,0,0,3.19-4.47c0-3.18-2.43-4.89-6.95-4.89H55v20h8.81c4.65,0,6.91-2.32,6.91-5.53"/>
    <path class="c" d="M25,9.18c0-3.62,1.84-5.44,3.67-5.64s4.18,1.22,5.06,4.86h0V20.14c-5.32-3.3-8.74-7.5-8.74-11M42.44,3.54c1.83.2,3.67,2,3.67,5.64,0,3.44-3.38,7.6-8.63,10.89v-12c.94-3.38,3.14-4.71,5-4.54m-5,20.65c7.65-4.13,12.38-9.8,12.38-15,0-5.8-3.51-8.77-7-9.14a8,8,0,0,0-7.31,3.51A8,8,0,0,0,28.24,0c-3.48.37-7,3.34-7,9.14,0,5.24,4.78,10.94,12.49,15.07V53.77H.33V57.3H70.16V53.77H37.48Z"/>
  </g>
</svg>
