<svg id="Layer_1" xmlns="http://www.w3.org/2000/svg" viewBox="0 0 225.4 199.9"><style>.st0{fill:none;stroke:#64aaa7;stroke-width:9.0702;stroke-miterlimit:10}.st1{fill:#64aaa7}.st2{fill:none;stroke:#64aaa7;stroke-width:6.2257;stroke-miterlimit:10}.st3{stroke-dasharray:16.0291,16.0291}.st3,.st4{fill:none;stroke:#64aaa7;stroke-width:4.1505}</style><path class="st2" d="M127.8 199.9V179c0-6.3 1.8-12.4 5.3-17.6 0-.1.1-.1.2-.2 2.1-3.1 4.9-5.6 7.9-7.9 4.6-3.6 7.5-9.4 6.8-15.9-.8-7.7-6.7-14.1-14.4-15.5-4-.7-7.7-.1-10.9 1.5 0 0-1.9 1-2.7 1.6-3 1.5-5.7 2-8 1.9-2.7-.1-5.2-1.1-7.5-2.5-.6-.4-1.8-1-1.8-1-3.2-1.5-6.9-2.2-10.9-1.5-7.6 1.4-13.5 7.8-14.4 15.5-.6 5.8 1.6 11.1 5.4 14.8 0 0 .1 0 .1.1.9.9 1.9 1.6 3 2.3.8.7 1.5 1.3 2.2 2 6.2 6.3 9.4 14.9 9.4 23.7v19.8M97.4 0v20.9c0 6.3-1.8 12.4-5.3 17.6l-.2.2c-2.1 3.1-4.9 5.6-7.9 7.9-4.6 3.6-7.5 9.4-6.8 15.9.8 7.7 6.7 14.1 14.4 15.5 4 .7 7.7.1 10.9-1.5 0 0 1.9-1 2.7-1.6 3-1.5 5.7-2 8-1.9 2.7.1 5.2 1.1 7.5 2.5.6.4 1.8 1 1.8 1 3.2 1.5 6.9 2.2 10.9 1.5 7.6-1.4 13.5-7.8 14.4-15.5.6-5.8-1.6-11.1-5.4-14.8 0 0-.1 0-.1-.1-.9-.9-1.9-1.6-3-2.3-.8-.7-1.5-1.3-2.2-2-6.2-6.3-9.4-14.9-9.4-23.7V0m-.8 99.9c0 7.9-6.4 14.3-14.3 14.3s-14.3-6.4-14.3-14.3 6.4-14.3 14.3-14.3 14.3 6.4 14.3 14.3z"/><path class="st3" d="M40.4 43.4C23 50.6 9.6 65.6 4.7 84.1M7.3 123.4c7.2 17.4 22.3 30.8 40.7 35.7"/><path class="st4" d="M55.9 160.6c2.6.3 5.3.5 8 .5M3.1 91.9c-.3 2.6-.5 5.3-.5 8s.2 5.4.5 8m60.7-69.2c-2.7 0-5.4.2-8 .5"/><path class="st3" d="M184.8 156.5c17.4-7.2 30.8-22.3 35.7-40.7M218 76.5c-7.2-17.4-22.3-30.8-40.7-35.7"/><path class="st4" d="M169.4 39.2c-2.6-.3-5.3-.5-8-.5m60.7 69.2c.3-2.6.5-5.3.5-8s-.2-5.4-.5-8m-60.7 69.3c2.7 0 5.4-.2 8-.5"/></svg>