<svg xmlns="http://www.w3.org/2000/svg" width="201.74" height="32.71" viewBox="0 0 201.74 32.71"><defs><style>.a{fill:none}.b{clip-path:url(#a)}.c{fill:#fcf0e9}</style><clipPath id="a"><path class="a" d="M0 0h201.74v32.71H0z"/></clipPath></defs><title>logo__genieve-burley</title><path class="b c" d="M6.32 25.63a8.25 8.25 0 0 0 4.88-1.48V19H6.05v2h2.79v1.75a4.73 4.73 0 0 1-2.52.68 3.66 3.66 0 0 1-3.76-3.9 3.6 3.6 0 0 1 3.66-3.89 4.6 4.6 0 0 1 3.19 1.23l1.74-1.41a6.74 6.74 0 0 0-4.93-2A5.85 5.85 0 0 0 0 19.57c0 3.82 2.75 6.06 6.32 6.06"/><path class="c" d="M25.07 23.41H19.2v-2.76h4.41v-2.08H19.2v-2.86h5.5V13.6h-7.93v11.91h8.3v-2.1zM32.83 17.62h.04l5.45 7.89h2.51V13.59h-2.45v8.06h-.04l-5.51-8.06h-2.44v11.92h2.44v-7.89zM46.78 13.6h2.47v11.92h-2.47zM63.48 23.41H57.6v-2.76h4.42v-2.08H57.6v-2.86h5.51V13.6h-7.92v11.91h8.29v-2.1zM74.59 25.51l4.59-11.91h-2.64l-3.03 8.56h-.03l-2.99-8.56h-2.66l4.6 11.91h2.16zM92.31 23.41h-5.88v-2.76h4.42v-2.08h-4.42v-2.86h5.51V13.6h-7.93v11.91h8.3v-2.1z"/><g class="b"><path class="c" d="M123.48 23.44v-3.06h2c1.46 0 2.18.61 2.18 1.54s-.89 1.51-2.2 1.52zm0-7.76h1.59c1.43 0 2 .56 2 1.39s-.89 1.41-1.87 1.41h-1.75zm6.74 6.54a3 3 0 0 0-2.49-3 2.71 2.71 0 0 0 1.86-2.66c0-1.89-1.42-2.91-4-2.91h-4.47v11.86h5.13c2.71 0 4-1.38 4-3.29M140.29 25.65c3.19 0 5-2 5-5.07v-7h-2.45v6.84c0 1.9-1.08 3-2.58 3s-2.54-1.3-2.54-3v-6.83h-2.46v7c0 3.25 2 5.07 5 5.07M153.46 15.69h1.82c1.43 0 2.23.72 2.23 1.83s-.81 1.83-2.33 1.83h-1.72zm0 5.74h1.42l2.78 4.08h2.9l-3.05-4.32a3.48 3.48 0 0 0 2.54-3.59c0-2.29-1.33-4-4.32-4H151v11.91h2.42z"/></g><path class="c" d="M173.55 23.41h-5.52V13.6h-2.45v11.91h7.97v-2.1zM186.88 23.41h-5.87v-2.76h4.41v-2.08h-4.41v-2.86h5.5V13.6h-7.92v11.91h8.29v-2.1zM198.87 13.59l-2.5 4.35h-.03l-2.53-4.35H191l4.1 6.69v5.23h2.48v-5.23l4.12-6.69h-2.83z"/><path class="b c" d="M99.87 5.46c0-2.15 1.07-3.23 2.14-3.35s2.43.73 2.99 2.89v7c-3.1-2-5.09-4.46-5.09-6.53M110 2.11c1.06.12 2.13 1.2 2.13 3.35s-2 4.53-5 6.49V4.81c.55-2 1.84-2.81 2.89-2.7m-2.89 28.5V14.4c4.45-2.46 7.21-5.84 7.21-8.94 0-3.45-2-5.21-4.08-5.43A4.59 4.59 0 0 0 106 2.12 4.58 4.58 0 0 0 101.76 0c-2 .22-4.08 2-4.08 5.43 0 3.12 2.79 6.51 7.28 9v16.18H.59v2.1h201.15v-2.1z"/></svg>